<?xml version="1.0" encoding="UTF-8"?>
<svg id="Layer_2" data-name="Layer 2" xmlns="http://www.w3.org/2000/svg" viewBox="0 0 390.86 400">
  <g id="Layer_1-2" data-name="Layer 1">
    <path d="M173.14,0H0v7.43c15.43,9.14,22.29,20,22.29,63.43v258.29c0,43.43-6.86,54.29-22.29,63.43v7.43h162.29c4.26,0,8.46-.08,12.6-.23,1.54-16.42,3.28-40.2,4.41-63.96l.61-16.65c-.09-.93-.53-1.6-1.58-.49-14.06,14.79-14.79,12.51-20.61,10.8-6.51-1.9-26.15-9.06-29.07-11.09-2.61-1.81-1.86-2.77,1.11-4.03,14.83-6.25,46.3-20.27,50.7-22.13.3-.13.51-.42.52-.75l.37-9.44c.02-.61-.58-1.05-1.15-.83-7.67,2.86-46.81,19.02-52.56,21.14-6.33,2.34-9.91,2.04-14.94-1.44-3.86-2.67-16.55-17.6-18.65-21.16-.79-1.33-1.63-2.63.88-3.16,2.39-.51,78.52-15.96,86.63-17.49.39-.07.67-.4.69-.8l.37-9.26c.02-.54-.45-.96-.98-.87-8.7,1.35-67.83,11.79-74.41,12.87-7.09,1.16-8.63-1.55-11.08-4.64-2.45-3.09-10.67-21.02-11.59-22.71-1.67-3.09-1.82-4.45,1.14-4.64,24.77-1.6,89.22-5.4,97.21-5.89.43-.03.78-.38.8-.82l.32-8.65c.02-.5-.38-.9-.88-.89-8.3.27-74.87,2.3-79.3,2.16-4.5-.15-6.44-.64-8.89-5.8-2.2-4.64-5-24.49-5.26-26.67-.19-1.66-.38-2.97,2.47-2.44,22.63,4.19,83.57,10.95,91.77,11.97.5.06.93-.31.96-.81l.31-7.97c.02-.43-.29-.81-.72-.88-6.98-1.09-62.71-9.46-68.88-10.59-6.63-1.21-7.81-2.46-9.36-7.29-1.06-3.32-2.2-19.64-2.22-21.39-.02-1.82-.17-2.89,2.3-2.17,37.63,11.01,72.36,19.78,78.66,21.36.53.13,1.04-.26,1.06-.8l.3-7.69c.01-.4-.24-.76-.63-.86-6-1.61-51.41-13.8-55.21-15.07-4.31-1.44-7.94-3.45-8.76-8.47-.83-5.07-.93-15.94-.77-18.36.16-2.46.46-3.1,2.49-2.1,17.08,8.43,55.53,22.82,62.52,25.42.54.2,1.13-.19,1.15-.77l.29-7.44c.01-.36-.2-.69-.53-.82-4.65-1.9-37.28-15.25-42.67-17.59-5.24-2.28-6.25-4.11-6.76-8.91-.28-2.61-.37-9.78.26-14.11.4-2.73.2-3.4,4.34-.93,8.3,4.93,38.48,20.65,44.87,23.97.56.29,1.22-.1,1.24-.73l.29-7.33c.01-.33-.16-.63-.45-.79-3.26-1.74-22.57-12.09-27.09-14.56-5.88-3.22-7.54-5.71-7.67-8.47-.24-5.11.28-11.11.58-13.28.53-3.81,1.38-4.31,3.89-2.31,10.87,8.67,25.77,18.44,30.15,21.27.55.36,1.29-.03,1.31-.69l.26-6.55c.01-.27-.11-.53-.32-.7-2.54-2.03-18.67-13.73-18.67-13.73,0,0-2.11-1.93-2.1-3.93.03-3.6,1.26-10.81,1.71-12.08.57-1.61.93-2.5,2.69-.74,7.89,7.89,12.85,11.96,16.09,14.63.9.74,1.24.89,1.24.13,0-7.51-3.41-22.4,4-26.49.12-.07.26-.1.4-.1.14,0,.28.03.4.1,7.42,4.1,4,18.98,4,26.49,0,.76.34.61,1.24-.13,3.24-2.67,8.2-6.75,16.09-14.63,1.76-1.76,2.11-.87,2.69.74.46,1.27,1.68,8.48,1.71,12.08.02,2-2.1,3.93-2.1,3.93,0,0-16.12,11.7-18.67,13.73-.21.17-.33.43-.32.7l.26,6.55c.03.66.76,1.05,1.31.69,4.37-2.83,19.27-12.6,30.15-21.27,2.51-2,3.36-1.49,3.9,2.31.3,2.17.82,8.17.58,13.28-.13,2.76-1.79,5.25-7.67,8.47-4.53,2.47-23.84,12.81-27.09,14.56-.29.16-.46.46-.45.79l.29,7.33c.02.63.69,1.01,1.24.73,6.39-3.31,36.57-19.03,44.87-23.97,4.14-2.46,3.94-1.79,4.34.93.63,4.33.53,11.5.26,14.11-.51,4.8-1.52,6.63-6.76,8.91-5.4,2.34-38.03,15.69-42.67,17.59-.33.14-.54.47-.53.82l.29,7.44c.03.58.6.97,1.15.77,6.99-2.6,45.44-16.99,62.52-25.42,2.03-1,2.34-.36,2.49,2.1.15,2.41.05,13.29-.77,18.36-.82,5.02-4.45,7.03-8.76,8.47-3.79,1.27-49.2,13.46-55.21,15.07-.39.1-.64.46-.63.86l.3,7.69c.02.54.53.93,1.06.8,6.31-1.58,41.03-10.35,78.66-21.36,2.47-.72,2.32.35,2.3,2.17-.02,1.74-1.16,18.06-2.22,21.39-1.54,4.83-2.73,6.08-9.35,7.29-6.16,1.13-61.9,9.5-68.88,10.59-.43.07-.73.44-.72.88l.31,7.97c.02.5.46.87.96.81,8.2-1.02,69.13-7.78,91.77-11.97,2.85-.53,2.66.79,2.47,2.44-.26,2.19-3.05,22.04-5.26,26.67-2.45,5.15-4.38,5.65-8.89,5.8-4.43.15-70.99-1.88-79.3-2.16-.5-.01-.9.39-.87.89l.32,8.65c.02.44.36.79.8.82,7.99.49,72.44,4.3,97.21,5.89,2.97.19,2.82,1.54,1.14,4.64-.92,1.7-9.14,19.62-11.59,22.71s-3.99,5.8-11.08,4.64c-6.58-1.08-65.71-11.52-74.41-12.87-.53-.09-1,.34-.98.87l.37,9.26c.02.4.3.73.69.8,8.11,1.53,84.24,16.98,86.63,17.49,2.52.53,1.66,1.83.88,3.16-2.1,3.56-14.8,18.49-18.65,21.16-5.03,3.48-8.61,3.78-14.94,1.44-5.74-2.13-44.89-18.28-52.56-21.14-.57-.21-1.17.22-1.15.83l.37,9.44c.01.33.21.63.52.75,4.4,1.85,35.87,15.87,50.7,22.13,2.97,1.26,3.72,2.21,1.11,4.03-2.92,2.03-22.57,9.18-29.08,11.09-5.82,1.7-6.55,3.99-20.61-10.8-1.05-1.1-1.49-.43-1.58.49l.61,16.65c1.04,22.06,2.62,44.13,4.07,60.32,115.88-18.25,177.11-99.49,177.11-205.85S316.57,0,173.14,0" fill="#00693e" stroke-width="0"/>
  </g>
</svg>